<svg width="250" height="80" viewBox="0 0 250 80" fill="none" xmlns="http://www.w3.org/2000/svg">
<path d="M182.858 66.887L194.737 52.7467C201.762 58.5776 210.577 61.8205 219.709 61.9327C225.416 61.9327 228.489 59.9459 228.489 56.7721V56.5398C228.489 53.366 225.906 51.6114 215.577 49.2116C199.127 45.4185 186.474 40.7997 186.474 25.0338V24.8274C186.474 10.5581 197.81 0.262495 216.3 0.262495C227.707 -0.15666 238.898 3.45187 247.908 10.4549L237.295 25.4725C231.032 20.843 223.517 18.2082 215.732 17.9121C210.567 17.9121 207.985 20.1053 207.985 22.8405V23.0469C207.985 26.5562 210.567 28.2076 221.284 30.5041C238.999 34.3489 250 40.0514 250 54.3981V54.6046C250 70.2673 237.579 79.5823 219.011 79.5823C205.812 79.9094 192.951 75.393 182.858 66.887ZM102.236 1.57847H122.146L153.832 42.1157V1.57847H174.956V78.2663H156.234L123.36 36.2067V78.2663H102.236V1.57847ZM58.1552 65.5452C57.6576 68.2162 56.8337 70.816 55.7019 73.2863C54.8239 74.9893 53.9975 75.557 53.4294 75.5312C48.7268 75.6185 44.0557 74.7485 39.7004 72.974C35.3451 71.1996 31.3969 68.5579 28.0963 65.2098C24.7067 61.9588 22.024 58.0447 20.2157 53.7117C18.4073 49.3787 17.5121 44.7197 17.586 40.0256C17.5146 35.3395 18.4111 30.689 20.2195 26.3647C22.0279 22.0404 24.7094 18.1352 28.0963 14.8931C31.3847 11.5182 35.3271 8.84862 39.6828 7.04739C44.0385 5.24616 48.7159 4.35109 53.4294 4.41685C53.9975 4.41685 54.8239 4.98453 55.6761 6.66175C56.8014 9.13449 57.6251 11.7335 58.1293 14.4028C59.785 22.8145 60.5553 31.3763 60.4276 39.9482C60.5577 48.5288 59.7873 57.0993 58.1293 65.5194L58.1552 65.5452ZM81.7064 11.7708C78.0276 7.98833 73.6162 4.9943 68.7413 2.97133C63.8664 0.948372 58.6301 -0.0611096 53.3519 0.00446004C48.064 -0.0757559 42.8157 0.926834 37.9303 2.95045C33.0449 4.97407 28.626 7.97585 24.9458 11.7708C21.1478 15.4481 18.1437 19.8636 16.1184 24.7451C14.0932 29.6267 13.0898 34.8709 13.1701 40.1546C13.1168 45.3948 14.1362 50.5906 16.1656 55.4228C18.1951 60.255 21.1918 64.6217 24.9716 68.2546C28.654 72.0449 33.0739 75.0419 37.9592 77.061C42.8445 79.0802 48.0917 80.0787 53.3778 79.9952C58.66 80.0684 63.9021 79.0677 68.7853 77.0539C73.6686 75.04 78.091 72.055 81.7839 68.2804C85.5977 64.6137 88.614 60.2008 90.6445 55.3172C92.6751 50.4336 93.6762 45.1841 93.5854 39.8966C93.6261 34.6473 92.5935 29.4451 90.5509 24.6087C88.5082 19.7724 85.4986 15.4038 81.7064 11.7708ZM0 78.2663H4.41587V1.57847H0V78.2663Z" fill="white"/>
</svg>
